<svg width="269" height="449" viewBox="0 0 269 449" fill="none" xmlns="http://www.w3.org/2000/svg">
<path d="M0 205.002C0 180.28 6.09002 159.803 17.0322 143.543C25.6277 130.771 36.903 121.071 49.6602 114.023C36.7358 75.7248 30.0092 36.7582 34.6914 10.3225C35.8954 3.52485 42.382 -1.01029 49.1797 0.19363C55.9773 1.39764 60.5123 7.88433 59.3086 14.6819C55.7573 34.7317 60.7897 68.2756 72.8154 104.439C114.33 92.1655 164.648 100.102 200.59 119C220.493 129.465 237.659 144.152 246.018 162.532C254.793 181.828 253.009 203.391 238.188 224.243C222.185 246.76 203.933 259.663 183.832 262.159C163.854 264.641 145.186 256.445 129.12 243.63C100.341 220.676 75.5525 179.558 58.5127 137.794C50.2301 142.905 43.2016 149.435 37.7734 157.501C30.003 169.048 25 184.494 25 205.002C25 263.014 61.9854 299.74 111.204 323.948C150.019 343.038 194.791 353.395 230.435 359.493L196.677 310.05L196.498 309.782C192.831 304.107 194.34 296.511 199.952 292.679C205.564 288.847 213.188 290.208 217.138 295.69L217.323 295.954L266.823 368.454C269.939 373.019 269.688 379.087 266.206 383.378L216.706 444.378C212.356 449.739 204.485 450.558 199.124 446.208C193.763 441.858 192.944 433.987 197.294 428.626L232.539 385.192C194.955 379.081 144.379 368.125 100.171 346.381C46.7648 320.114 0 276.59 0 205.002ZM188.955 141.128C158.015 124.86 115.34 118.549 81.502 127.958C97.7684 167.957 120.584 204.844 144.709 224.086C157.783 234.514 169.867 238.702 180.751 237.35C191.512 236.013 204.233 228.866 217.812 209.761C227.899 195.567 228.051 183.415 223.261 172.881C218.053 161.43 206.152 150.17 188.955 141.128Z" fill="#8375EF"/>
</svg>
