<svg width="38" height="37" viewBox="0 0 38 37" fill="none" xmlns="http://www.w3.org/2000/svg">
<path d="M36.6562 1V36.2979C30.7503 36.2979 25.335 34.1973 21.1152 30.7041C16.9056 33.5087 10.1558 36.1762 2 34.6934C4.24621 33.7307 12.9098 27.9543 12.5889 16.4023C12.6282 16.4564 12.6702 16.509 12.7129 16.5605C12.4222 15.0551 12.2686 13.5005 12.2686 11.9102V1H36.6562Z" fill="#F5F5F5"/>
<path d="M36.6562 1H37.1562V0.5H36.6562V1ZM36.6562 36.2979V36.7979H37.1562V36.2979H36.6562ZM21.1152 30.7041L21.4341 30.319L21.1476 30.0818L20.838 30.288L21.1152 30.7041ZM2 34.6934L1.80304 34.2338L0.276214 34.8881L1.91056 35.1853L2 34.6934ZM12.5889 16.4023L12.9932 16.1083L12.0443 14.8034L12.0891 16.4162L12.5889 16.4023ZM12.7129 16.5605L12.3276 16.8792L13.2038 16.4658L12.7129 16.5605ZM12.2686 1V0.5H11.7686V1H12.2686ZM36.6562 1H36.1562V36.2979H36.6562H37.1562V1H36.6562ZM36.6562 36.2979V35.7979C30.871 35.7979 25.5675 33.7407 21.4341 30.319L21.1152 30.7041L20.7964 31.0893C25.1024 34.6539 30.6296 36.7979 36.6562 36.7979V36.2979ZM21.1152 30.7041L20.838 30.288C16.7058 33.0411 10.0859 35.6553 2.08944 34.2014L2 34.6934L1.91056 35.1853C10.2257 36.6971 17.1054 33.9764 21.3925 31.1202L21.1152 30.7041ZM2 34.6934L2.19696 35.1529C3.39668 34.6388 6.19027 32.903 8.64754 29.8312C11.1146 26.7471 13.253 22.3024 13.0887 16.3885L12.5889 16.4023L12.0891 16.4162C12.2457 22.0542 10.2127 26.2738 7.86665 29.2065C5.51082 32.1515 2.84953 33.7853 1.80304 34.2338L2 34.6934ZM12.5889 16.4023L12.1845 16.6964C12.2325 16.7624 12.2818 16.8239 12.3276 16.8792L12.7129 16.5605L13.0982 16.2419C13.0586 16.194 13.0239 16.1504 12.9932 16.1083L12.5889 16.4023ZM12.7129 16.5605L13.2038 16.4658C12.9191 14.991 12.7686 13.4682 12.7686 11.9102H12.2686H11.7686C11.7686 13.5328 11.9253 15.1191 12.222 16.6553L12.7129 16.5605ZM12.2686 11.9102H12.7686V1H12.2686H11.7686V11.9102H12.2686ZM12.2686 1V1.5H36.6562V1V0.5H12.2686V1Z" fill="#F5F5F5"/>
</svg>
