<svg width="24" height="12" viewBox="0 0 24 12" fill="none" xmlns="http://www.w3.org/2000/svg">
<path d="M10.4449 4.83419C10.4449 6.00577 10.314 6.94076 10.0519 7.6403C9.78968 8.33983 9.42399 8.83747 8.95479 9.13434C8.48502 9.43065 7.91686 9.57909 7.24974 9.57909C6.40973 9.57909 5.69029 9.38004 5.09255 8.98249C4.53406 8.61111 4.12628 8.03386 3.86979 7.25015C3.83851 7.1546 3.74012 7.09716 3.64173 7.1182L3.61102 7.12446C3.51035 7.14607 3.44267 7.24105 3.45632 7.34342L3.80097 9.92943C3.80211 9.93796 3.80268 9.94706 3.80268 9.95559V10.7359C3.80268 11.0174 3.6514 11.2028 3.33575 11.2028H0.465949C0.211159 11.2028 -0.000976562 11.0225 -0.000976562 10.7359V0.697261C-0.000976562 0.412328 0.223102 0.230335 0.465949 0.230335H3.23509C3.49727 0.230335 3.70998 0.40266 3.66618 0.73366L3.38011 3.06829C3.36703 3.17293 3.43926 3.26905 3.54277 3.28668L3.56438 3.29009C3.66732 3.30772 3.76628 3.24118 3.7896 3.13938C3.96249 2.37615 4.18657 1.77045 4.46183 1.32343C4.75814 0.841718 5.1227 0.500481 5.5555 0.300288C5.98773 0.100096 6.51779 0 7.14566 0C9.35005 0 10.4494 1.61121 10.4449 4.83362V4.83419ZM6.29314 6.52445C6.48082 6.21791 6.57466 5.73107 6.57466 5.06396C6.57466 4.39684 6.48309 3.95437 6.30053 3.6774C6.1174 3.40043 5.81882 3.26223 5.40365 3.26223C5.13691 3.26223 4.88497 3.33047 4.64724 3.46583C4.41008 3.60176 4.21444 3.80934 4.06145 4.08859C3.90846 4.36783 3.82145 4.71248 3.80211 5.12254V6.20426C3.80211 6.27023 3.8351 6.33165 3.89026 6.36862C4.22524 6.59327 4.4988 6.75024 4.71037 6.83896C4.94013 6.93507 5.18355 6.98341 5.44062 6.98341C5.8211 6.98341 6.10546 6.83043 6.29314 6.52388V6.52445Z" fill="#FF4052"/>
<path d="M21.2588 0C21.2563 0 21.2538 0 21.2517 0C21.2488 0 21.2459 0 21.2426 0C20.4312 0 19.7286 0.294807 19.1342 0.884006C18.5507 1.46321 18.1579 2.38511 17.9555 3.65095C17.9488 3.69176 17.9301 3.72882 17.9014 3.75547C17.8422 3.81043 17.7564 3.81043 17.6973 3.75547C17.6685 3.72882 17.6498 3.69176 17.6431 3.65095C17.4407 2.38511 17.0479 1.46321 16.4644 0.884006C15.87 0.294807 15.1674 0 14.356 0C14.3531 0 14.3502 0 14.3469 0C14.3444 0 14.3419 0 14.3398 0C12.523 0 11.4651 1.05098 11.6146 3.13421C11.665 3.83458 11.7599 4.39797 11.9303 4.88723C13.2989 8.82217 16.2153 10.3324 17.5486 11.0998C17.5486 11.0998 17.7239 11.2039 17.7997 11.2039C17.8755 11.2039 18.0546 11.0998 18.0546 11.0998C19.3879 10.3324 22.3005 8.82217 23.6692 4.88723C23.8395 4.39797 23.9345 3.83458 23.9849 3.13421C24.1344 1.0514 23.0765 0 21.2597 0H21.2588Z" fill="#FF4052"/>
</svg>
