<svg width="24" height="12" viewBox="0 0 24 12" fill="none" xmlns="http://www.w3.org/2000/svg">
<path d="M2 10.6674V10.4725L2.27287 10.3946C2.72766 10.2646 2.95505 9.94628 2.95505 9.43952V3.3389C2.95505 3.05303 2.90957 2.84513 2.81861 2.71519C2.72766 2.57226 2.55224 2.4748 2.29236 2.42283L2 2.34487V2.14996L5.33293 1.01949L5.52784 1.2144L5.68376 2.38385C6.13855 1.98104 6.6518 1.64969 7.22353 1.38982C7.79526 1.12994 8.3605 1 8.91923 1C9.77683 1 10.433 1.23389 10.8878 1.70167C11.3556 2.16945 11.5895 2.88411 11.5895 3.84566V9.45901C11.5895 9.96577 11.8364 10.2841 12.3301 10.4141L12.5055 10.4725V10.6674H7.90571V10.4725L8.15909 10.3946C8.61388 10.2516 8.84127 9.93328 8.84127 9.43952V3.22195C8.84127 2.39034 8.42547 1.97454 7.59386 1.97454C7.02213 1.97454 6.39842 2.26041 5.72274 2.83214V9.45901C5.72274 9.96577 5.95014 10.2841 6.40492 10.4141L6.58034 10.4725V10.6674H2Z" fill="black"/>
<path d="M18.1018 10.9598C17.2183 10.9598 16.4126 10.7714 15.685 10.3946C14.9703 10.0048 14.3986 9.44601 13.9698 8.71836C13.554 7.97771 13.3461 7.07463 13.3461 6.00914C13.3461 4.95663 13.5735 4.06006 14.0283 3.31941C14.496 2.56576 15.1132 1.99403 15.8799 1.60421C16.6595 1.2014 17.5106 1 18.4332 1C19.1868 1 19.8235 1.12344 20.3433 1.37033C20.863 1.61721 21.2593 1.94206 21.5322 2.34487C21.8051 2.73468 21.9415 3.14399 21.9415 3.57279C21.9415 3.93661 21.8311 4.22248 21.6102 4.43038C21.3893 4.62529 21.1034 4.72274 20.7526 4.72274C20.3758 4.72274 20.0704 4.58631 19.8365 4.31344C19.6026 4.04057 19.4662 3.68323 19.4272 3.24144C19.4142 2.95558 19.4207 2.71519 19.4467 2.52028C19.4727 2.31238 19.4727 2.10448 19.4467 1.89658C19.3947 1.67568 19.3103 1.53275 19.1933 1.46778C19.0894 1.38982 18.9399 1.35083 18.745 1.35083C17.9524 1.35083 17.3352 1.69517 16.8934 2.38385C16.4646 3.07252 16.2502 4.1705 16.2502 5.67779C16.2502 6.99017 16.4906 7.9972 16.9714 8.69887C17.4651 9.38754 18.2188 9.73188 19.2323 9.73188C19.843 9.73188 20.3368 9.62143 20.7136 9.40054C21.0904 9.17964 21.4543 8.8483 21.8051 8.4065L22 8.56243C21.6752 9.32907 21.1749 9.92029 20.4992 10.3361C19.8235 10.7519 19.0244 10.9598 18.1018 10.9598Z" fill="black"/>
</svg>
