<svg width="32" height="32" viewBox="0 0 32 32" fill="none" xmlns="http://www.w3.org/2000/svg">
<rect width="32" height="32" rx="6" fill="white"/>
<path d="M14.4449 14.79C14.4449 15.9616 14.314 16.8966 14.0519 17.5961C13.7897 18.2956 13.424 18.7933 12.9548 19.0902C12.485 19.3865 11.9169 19.5349 11.2497 19.5349C10.4097 19.5349 9.69029 19.3358 9.09255 18.9383C8.53406 18.5669 8.12628 17.9897 7.86979 17.206C7.83851 17.1104 7.74012 17.053 7.64173 17.074L7.61102 17.0803C7.51035 17.1019 7.44267 17.1969 7.45632 17.2992L7.80097 19.8852C7.80211 19.8938 7.80268 19.9029 7.80268 19.9114V20.6917C7.80268 20.9732 7.6514 21.1586 7.33575 21.1586H4.46595C4.21116 21.1586 3.99902 20.9783 3.99902 20.6917V10.6531C3.99902 10.3681 4.2231 10.1861 4.46595 10.1861H7.23509C7.49727 10.1861 7.70998 10.3585 7.66618 10.6895L7.38011 13.0241C7.36703 13.1287 7.43926 13.2249 7.54277 13.2425L7.56438 13.2459C7.66732 13.2635 7.76628 13.197 7.7896 13.0952C7.96249 12.332 8.18657 11.7263 8.46183 11.2792C8.75814 10.7975 9.1227 10.4563 9.5555 10.2561C9.98773 10.0559 10.5178 9.95581 11.1457 9.95581C13.3501 9.95581 14.4494 11.567 14.4449 14.7894V14.79ZM10.2931 16.4803C10.4808 16.1737 10.5747 15.6869 10.5747 15.0198C10.5747 14.3526 10.4831 13.9102 10.3005 13.6332C10.1174 13.3562 9.81882 13.218 9.40365 13.218C9.13691 13.218 8.88497 13.2863 8.64724 13.4216C8.41008 13.5576 8.21444 13.7652 8.06145 14.0444C7.90846 14.3236 7.82145 14.6683 7.80211 15.0783V16.1601C7.80211 16.226 7.8351 16.2875 7.89026 16.3244C8.22524 16.5491 8.4988 16.706 8.71037 16.7948C8.94013 16.8909 9.18355 16.9392 9.44062 16.9392C9.8211 16.9392 10.1055 16.7862 10.2931 16.4797V16.4803Z" fill="#FF4052"/>
<path d="M25.2588 9.95581C25.2563 9.95581 25.2538 9.95581 25.2517 9.95581C25.2488 9.95581 25.2459 9.95581 25.2426 9.95581C24.4312 9.95581 23.7286 10.2506 23.1342 10.8398C22.5507 11.419 22.1579 12.3409 21.9555 13.6068C21.9488 13.6476 21.9301 13.6846 21.9014 13.7113C21.8422 13.7662 21.7564 13.7662 21.6973 13.7113C21.6685 13.6846 21.6498 13.6476 21.6431 13.6068C21.4407 12.3409 21.0479 11.419 20.4644 10.8398C19.87 10.2506 19.1674 9.95581 18.356 9.95581C18.3531 9.95581 18.3502 9.95581 18.3469 9.95581C18.3444 9.95581 18.3419 9.95581 18.3398 9.95581C16.523 9.95581 15.4651 11.0068 15.6146 13.09C15.665 13.7904 15.7599 14.3538 15.9303 14.843C17.2989 18.778 20.2153 20.2882 21.5486 21.0557C21.5486 21.0557 21.7239 21.1598 21.7997 21.1598C21.8755 21.1598 22.0546 21.0557 22.0546 21.0557C23.3879 20.2882 26.3005 18.778 27.6692 14.843C27.8395 14.3538 27.9345 13.7904 27.9849 13.09C28.1344 11.0072 27.0765 9.95581 25.2597 9.95581H25.2588Z" fill="#FF4052"/>
</svg>
