<svg width="32" height="32" viewBox="0 0 32 32" fill="none" xmlns="http://www.w3.org/2000/svg">
<rect width="32" height="32" rx="6" fill="#FF4052"/>
<path d="M14.4458 14.79C14.4458 15.9616 14.315 16.8966 14.0528 17.5961C13.7907 18.2956 13.425 18.7933 12.9558 19.0902C12.486 19.3865 11.9178 19.5349 11.2507 19.5349C10.4107 19.5349 9.69126 19.3358 9.09353 18.9383C8.53504 18.5669 8.12726 17.9897 7.87076 17.206C7.83948 17.1104 7.74109 17.053 7.6427 17.074L7.61199 17.0803C7.51133 17.1019 7.44365 17.1969 7.4573 17.2992L7.80195 19.8852C7.80309 19.8938 7.80365 19.9029 7.80365 19.9114V20.6917C7.80365 20.9732 7.65237 21.1586 7.33673 21.1586H4.46693C4.21214 21.1586 4 20.9783 4 20.6917V10.6531C4 10.3681 4.22408 10.1861 4.46693 10.1861H7.23606C7.49825 10.1861 7.71095 10.3585 7.66716 10.6895L7.38109 13.0241C7.36801 13.1287 7.44024 13.2249 7.54375 13.2425L7.56536 13.2459C7.6683 13.2635 7.76726 13.197 7.79057 13.0952C7.96347 12.332 8.18755 11.7263 8.46281 11.2792C8.75912 10.7975 9.12367 10.4563 9.55648 10.2561C9.98871 10.0559 10.5188 9.95581 11.1466 9.95581C13.351 9.95581 14.4504 11.567 14.4458 14.7894V14.79ZM10.2941 16.4803C10.4818 16.1737 10.5756 15.6869 10.5756 15.0198C10.5756 14.3526 10.4841 13.9102 10.3015 13.6332C10.1184 13.3562 9.8198 13.218 9.40462 13.218C9.13789 13.218 8.88594 13.2863 8.64822 13.4216C8.41106 13.5576 8.21541 13.7652 8.06243 14.0444C7.90944 14.3236 7.82242 14.6683 7.80309 15.0783V16.1601C7.80309 16.226 7.83607 16.2875 7.89124 16.3244C8.22622 16.5491 8.49978 16.706 8.71135 16.7948C8.94111 16.8909 9.18453 16.9392 9.44159 16.9392C9.82207 16.9392 10.1064 16.7862 10.2941 16.4797V16.4803Z" fill="white"/>
<path d="M25.2598 9.95581C25.2573 9.95581 25.2548 9.95581 25.2527 9.95581C25.2498 9.95581 25.2469 9.95581 25.2436 9.95581C24.4322 9.95581 23.7295 10.2506 23.1352 10.8398C22.5517 11.419 22.1589 12.3409 21.9565 13.6068C21.9498 13.6476 21.9311 13.6846 21.9023 13.7113C21.8432 13.7662 21.7574 13.7662 21.6982 13.7113C21.6695 13.6846 21.6508 13.6476 21.6441 13.6068C21.4417 12.3409 21.0489 11.419 20.4654 10.8398C19.871 10.2506 19.1684 9.95581 18.357 9.95581C18.3541 9.95581 18.3512 9.95581 18.3478 9.95581C18.3454 9.95581 18.3429 9.95581 18.3408 9.95581C16.524 9.95581 15.466 11.0068 15.6156 13.09C15.666 13.7904 15.7609 14.3538 15.9313 14.843C17.2999 18.778 20.2163 20.2882 21.5495 21.0557C21.5495 21.0557 21.7249 21.1598 21.8007 21.1598C21.8765 21.1598 22.0556 21.0557 22.0556 21.0557C23.3888 20.2882 26.3015 18.778 27.6701 14.843C27.8405 14.3538 27.9354 13.7904 27.9858 13.09C28.1354 11.0072 27.0774 9.95581 25.2606 9.95581H25.2598Z" fill="white"/>
</svg>
